<?xml version="1.0" encoding="utf-8"?>
<!-- Generator: Adobe Illustrator 23.0.3, SVG Export Plug-In . SVG Version: 6.00 Build 0)  -->
<svg version="1.1" id="Livello_1" xmlns="http://www.w3.org/2000/svg" xmlns:xlink="http://www.w3.org/1999/xlink" x="0px" y="0px"
	 viewBox="0 0 163.77 155.9" style="enable-background:new 0 0 163.77 155.9;" xml:space="preserve">
<style type="text/css">
	.st0{fill:#FFFFFF;}
</style>
<g id="XMLID_14_">
	<path id="XMLID_530_" class="st0" d="M116.03,65.08c-1.71-13-4.96-23.78-9.94-32.97c-4.02-7.36-8.92-12.7-14.56-15.9
		c-0.17-1.52-0.36-3.1-1.13-4.48c-1.75-3.48-5.81-5.62-9.65-5.08c-3.49,0.37-6.63,2.85-7.82,6.17c-1.3,3.43-0.37,7.58,2.26,10.1
		c2.66,2.69,6.94,3.51,10.4,2.01c1.7-0.65,3.22-1.95,4.61-3.96c8.22,5.28,12.65,14.55,15.28,21.1c4.46,11.52,6.75,24.78,6.81,39.39
		c0,10.76-1.28,21.01-3.82,30.45c-0.12,0.47-0.27,0.94-0.41,1.41c-0.28,0.91-0.57,1.85-0.69,2.85c-0.06,0.77,0.34,1.53,1.04,1.99
		c0.42,0.27,0.89,0.41,1.33,0.41c0.33,0,0.64-0.07,0.92-0.22c0.98-0.4,1.28-1.38,1.52-2.17c0.05-0.15,0.09-0.3,0.15-0.47
		C116.97,99.95,118.21,82.91,116.03,65.08z M80.05,11.69l0.02-0.01c0.55-0.25,1.16-0.37,1.78-0.37c0.69,0,1.4,0.15,2.07,0.46
		c1.27,0.58,2.21,1.62,2.58,2.87c0.43,1.22,0.27,2.63-0.42,3.85c-0.68,1.2-1.78,2.03-3.05,2.3c-1.18,0.32-2.51,0.11-3.64-0.58
		c-1.13-0.69-1.92-1.77-2.18-2.98C76.63,15.02,77.9,12.53,80.05,11.69z"/>
	<path id="XMLID_486_" class="st0" d="M64.51,39.14c-0.11-1.13-0.89-1.96-1.9-2.07c-5.59-1.08-11.12-1.47-16.46-1.16h0
		c-6.75,0.41-15.97,2.37-21.53,9.3c-3.04,3.73-4.58,8.87-4.22,14.12c0.34,5.39,2.24,11.07,5.61,16.84c0.34,0.72,1.08,1.21,1.93,1.27
		c0.06,0,0.12,0.01,0.17,0.01c0.79,0,1.51-0.37,1.89-0.97c0.9-1.16,0.22-2.46-0.28-3.4c-0.08-0.15-0.16-0.3-0.23-0.45
		c-3.73-6.89-5.06-13.12-3.94-18.53c0.91-4.54,4.41-8.64,9.12-10.72c6.01-2.71,13.29-3.44,22.91-2.29c0.63,0.05,1.27,0.17,1.9,0.28
		c1.11,0.2,2.26,0.42,3.51,0.25C64.17,41.24,64.61,40.11,64.51,39.14z"/>
	<path id="XMLID_496_" class="st0" d="M142.92,53.34c-1.08-5.3-4.67-10.15-9.61-12.99c-5.13-2.97-11.43-4.43-18.84-4.37l-0.91,0.37
		l-0.17,0.09c-0.78,0.56-1.08,1.56-0.77,2.55c0.31,0.97,1.11,1.61,2.02,1.62c0.63,0.05,1.27,0.09,1.9,0.14
		c2.17,0.15,4.41,0.3,6.56,0.8c4.11,0.85,9.7,2.86,12.95,7.63c3.4,4.82,2.7,10.79,1.98,13.92c-1.39,6.01-4.6,12.14-9.82,18.76
		c-0.22,0.3-0.46,0.58-0.7,0.86c-0.63,0.74-1.28,1.5-1.57,2.58c-0.12,1.04,0.5,2,1.55,2.4c0.31,0.12,0.61,0.17,0.91,0.17
		c0.7,0,1.34-0.31,1.74-0.88c4.04-4.69,7.29-9.6,9.65-14.6C143.06,65.43,144.11,59.02,142.92,53.34z"/>
	<path id="XMLID_484_" class="st0" d="M100.71,38.47c-0.91-1.13-2.33-0.79-3.36-0.55c-0.15,0.04-0.31,0.07-0.45,0.1l-0.01,0
		c-18.02,4.33-35.64,13.3-50.93,25.95c-8.64,7.29-15.07,14.64-19.68,22.46c-4.16,7.19-6.12,14-5.83,20.23
		c-2.07,1.28-3.63,3.39-4.29,5.86c-0.66,2.45-0.36,4.93,0.84,6.98c1.61,3.02,4.95,4.98,8.34,4.98c0.31,0,0.63-0.02,0.94-0.05
		c3.7-0.28,7.08-2.97,8.21-6.53c1.19-3.54,0.06-7.69-2.73-10.1c-1.62-1.51-3.93-2.37-6.55-2.44c-0.03-3.17,0.67-6.59,2.07-10.17
		c2.15-5.42,5.6-10.86,10.55-16.62c5.51-6.35,12.3-12.32,20.17-17.76c13.22-9.04,27.06-15.24,41.08-18.4
		c0.9-0.08,1.71-0.71,2.05-1.6C101.43,39.96,101.27,39.08,100.71,38.47z M21.73,118.03c-0.93-1.08-1.34-2.44-1.13-3.75
		c0.2-1.72,1.42-3.26,3.03-3.84l0.03-0.01c1.27-0.56,2.81-0.43,4.13,0.33c1.33,0.77,2.21,2.06,2.36,3.49
		c0.23,1.33-0.19,2.72-1.17,3.83c-0.98,1.11-2.32,1.71-3.71,1.64C23.97,119.76,22.67,119.12,21.73,118.03z"/>
	<path id="XMLID_495_" class="st0" d="M140.64,105.58c-2.37-0.67-5.03-0.27-7.3,1.1c-2.3,1.39-3.91,3.59-4.41,6
		c-0.56,1.93-0.31,4.15,0.73,6.6c-4.96,2.32-11.02,3.33-18.03,3.01c-8.25-0.39-16.9-2.29-26.44-5.82
		c-17.85-6.78-33.7-17.22-45.81-30.15c-0.49-0.62-1.28-0.95-2.1-0.87c-0.79,0.07-1.46,0.51-1.81,1.17c-0.46,0.72-0.65,1.92,0.98,3.5
		c10.26,10.9,23.1,20.01,38.16,27.08c12.29,5.65,23.6,8.82,34.59,9.7c1.7,0.12,3.35,0.19,4.93,0.19c7.44,0,13.6-1.37,18.71-4.16
		c1.65,0.96,4.09,1.93,6.7,1.51c4.18-0.42,7.84-4.05,8.31-8.24C148.6,111.49,145.29,106.62,140.64,105.58z M134.77,118.05
		c-0.85-0.94-1.27-2.14-1.17-3.33c-0.03-1.77,1.16-3.49,2.9-4.19l0.01-0.01c0.53-0.23,1.11-0.34,1.7-0.34
		c0.95,0,1.92,0.29,2.77,0.86c1.3,0.88,2.06,2.25,2.03,3.73c0.1,1.23-0.39,2.48-1.34,3.45c-0.98,0.99-2.28,1.51-3.57,1.41
		C136.88,119.62,135.66,119.04,134.77,118.05z"/>
	<path id="XMLID_485_" class="st0" d="M105.1,131.11c-0.26-0.81-1.01-1.43-1.92-1.57c-0.87-0.14-1.66,0.18-2.11,0.83
		c-0.56,0.73-1.08,1.51-1.57,2.26c-0.62,0.94-1.26,1.92-2.01,2.8c-2.86,3.63-7.57,8.15-13.76,9.04c-4.55,0.62-9.55-1.22-13.73-5.06
		c-6.49-5.95-10.09-14.07-12.49-20.44c-0.21-0.68-0.73-1.26-1.41-1.54c-0.63-0.26-1.29-0.25-1.88,0.05
		c-0.54,0.24-0.96,0.68-1.18,1.25c-0.23,0.59-0.22,1.25,0.01,1.79c1.54,4.4,3.5,8.63,5.85,12.56c4.15,6.87,8.76,11.49,14.11,14.15
		c2.79,1.41,5.88,2.12,8.95,2.12c2.56,0,5.11-0.49,7.46-1.49c5.41-2.23,10.18-6.58,14.58-13.34c0.1-0.17,0.21-0.34,0.33-0.51
		C104.84,133.2,105.48,132.23,105.1,131.11z"/>
	<g id="XMLID_487_">
		<path id="XMLID_489_" class="st0" d="M100.3,69.08c-1.27-1.98-3.25-3.34-5.56-3.84c-2.31-0.5-4.67-0.08-6.64,1.19L68.68,78.92
			c-1.98,1.27-3.34,3.24-3.84,5.55c-0.5,2.31-0.08,4.67,1.19,6.65c1.32,2.05,3.34,3.37,5.55,3.85c2.21,0.48,4.6,0.12,6.65-1.2
			l19.42-12.49c1.98-1.27,3.34-3.25,3.84-5.55C101.99,73.41,101.57,71.05,100.3,69.08L100.3,69.08z M77.05,91.93
			c-3.08,1.98-7.2,1.09-9.18-1.99c-0.96-1.49-1.27-3.26-0.9-5c0.38-1.74,1.4-3.22,2.89-4.18l8.56-5.5l7.19,11.18L77.05,91.93z
			 M94.72,80.43l-6.15,3.95c-0.22,0.14-0.47,0.18-0.71,0.13c-0.23-0.05-0.45-0.19-0.59-0.41c-0.28-0.44-0.15-1.01,0.28-1.29
			l6.15-3.95c0.44-0.28,1.01-0.15,1.29,0.28C95.28,79.58,95.15,80.15,94.72,80.43L94.72,80.43z M97.85,78.42l-0.3,0.2
			c-0.22,0.14-0.47,0.18-0.71,0.13c-0.23-0.05-0.45-0.19-0.59-0.41c-0.28-0.44-0.15-1.01,0.28-1.29l0.3-0.2
			c0.43-0.28,1.01-0.15,1.29,0.28C98.41,77.56,98.29,78.14,97.85,78.42L97.85,78.42z M97.85,78.42"/>
	</g>
</g>
</svg>
